<svg width="24" height="24" viewBox="0 0 24 24" fill="none" xmlns="http://www.w3.org/2000/svg">
<path d="M15.5 8.50008L19.2279 11.3995C19.7151 11.7785 20 12.3682 20 12.9854C20 14.09 19.1046 15.0001 18 15.0001H14M8.5 8.50008L4.77212 11.3995C4.28495 11.7785 4 12.3682 4 12.9854C4 14.09 4.89543 15.0001 6 15.0001H10M8 19.0001H11M13 19.0001H16M8.8924 8.23899L11.5107 20.676C11.6222 21.2054 12.3778 21.2054 12.4893 20.676L15.1076 8.23898C15.6333 5.74171 14.4081 3.20413 12.1255 2.06283C12.0465 2.02333 11.9535 2.02333 11.8745 2.06283C9.59191 3.20413 8.36666 5.74171 8.8924 8.23899Z" stroke="#111111" stroke-width="2" stroke-linecap="round"/>
</svg>
