<svg width="24" height="24" viewBox="0 0 24 24" fill="none" xmlns="http://www.w3.org/2000/svg">
<path d="M2 3.6C2 3.03995 2 2.75992 2.10899 2.54601C2.20487 2.35785 2.35785 2.20487 2.54601 2.10899C2.75992 2 3.03995 2 3.6 2H8.4C8.96005 2 9.24008 2 9.45399 2.10899C9.64215 2.20487 9.79513 2.35785 9.89101 2.54601C10 2.75992 10 3.03995 10 3.6V8.4C10 8.96005 10 9.24008 9.89101 9.45399C9.79513 9.64215 9.64215 9.79513 9.45399 9.89101C9.24008 10 8.96005 10 8.4 10H3.6C3.03995 10 2.75992 10 2.54601 9.89101C2.35785 9.79513 2.20487 9.64215 2.10899 9.45399C2 9.24008 2 8.96005 2 8.4V3.6Z" stroke="#111111" stroke-width="2"/>
<path d="M2 15.6C2 15.0399 2 14.7599 2.10899 14.546C2.20487 14.3578 2.35785 14.2049 2.54601 14.109C2.75992 14 3.03995 14 3.6 14H8.4C8.96005 14 9.24008 14 9.45399 14.109C9.64215 14.2049 9.79513 14.3578 9.89101 14.546C10 14.7599 10 15.0399 10 15.6V20.4C10 20.9601 10 21.2401 9.89101 21.454C9.79513 21.6422 9.64215 21.7951 9.45399 21.891C9.24008 22 8.96005 22 8.4 22H3.6C3.03995 22 2.75992 22 2.54601 21.891C2.35785 21.7951 2.20487 21.6422 2.10899 21.454C2 21.2401 2 20.9601 2 20.4V15.6Z" stroke="#111111" stroke-width="2"/>
<path d="M14 3.6C14 3.03995 14 2.75992 14.109 2.54601C14.2049 2.35785 14.3578 2.20487 14.546 2.10899C14.7599 2 15.0399 2 15.6 2H20.4C20.9601 2 21.2401 2 21.454 2.10899C21.6422 2.20487 21.7951 2.35785 21.891 2.54601C22 2.75992 22 3.03995 22 3.6V8.4C22 8.96005 22 9.24008 21.891 9.45399C21.7951 9.64215 21.6422 9.79513 21.454 9.89101C21.2401 10 20.9601 10 20.4 10H15.6C15.0399 10 14.7599 10 14.546 9.89101C14.3578 9.79513 14.2049 9.64215 14.109 9.45399C14 9.24008 14 8.96005 14 8.4V3.6Z" stroke="#111111" stroke-width="2"/>
<path d="M14 15.6C14 15.0399 14 14.7599 14.109 14.546C14.2049 14.3578 14.3578 14.2049 14.546 14.109C14.7599 14 15.0399 14 15.6 14H20.4C20.9601 14 21.2401 14 21.454 14.109C21.6422 14.2049 21.7951 14.3578 21.891 14.546C22 14.7599 22 15.0399 22 15.6V20.4C22 20.9601 22 21.2401 21.891 21.454C21.7951 21.6422 21.6422 21.7951 21.454 21.891C21.2401 22 20.9601 22 20.4 22H15.6C15.0399 22 14.7599 22 14.546 21.891C14.3578 21.7951 14.2049 21.6422 14.109 21.454C14 21.2401 14 20.9601 14 20.4V15.6Z" stroke="#111111" stroke-width="2"/>
</svg>
