<svg width="24" height="24" viewBox="0 0 24 24" fill="none" xmlns="http://www.w3.org/2000/svg">
<path d="M16 4C16 5.10457 13.3137 6 10 6C6.68629 6 4 5.10457 4 4M16 4C16 2.89543 13.3137 2 10 2C6.68629 2 4 2.89543 4 4M16 4V8M4 4V8C4 9.10457 6.68629 10 10 10C13.3137 10 16 9.10457 16 8M20 9.8862C20 10.9908 17.3137 11.8862 14 11.8862C10.6863 11.8862 8 10.9908 8 9.8862V13.8862M20 9.8862C20 9.01538 18.3304 8.27456 16 8M20 9.8862V13.8862C20 14.9908 17.3137 15.8862 14 15.8862C10.6863 15.8862 8 14.9908 8 13.8862M4 15.7724C4 16.877 6.68629 17.7724 10 17.7724C13.3137 17.7724 16 16.877 16 15.7724V19.7725C16 20.877 13.3137 21.7725 10 21.7725C6.68629 21.7725 4 20.877 4 19.7725V15.7724ZM4 15.7724C4 14.9016 5.66962 14.1608 8 13.8862" stroke="#111111" stroke-width="2"/>
</svg>
