<svg width="24" height="24" viewBox="0 0 24 24" fill="none" xmlns="http://www.w3.org/2000/svg">
<path d="M1.5 10C4.33333 9.33335 9.2 8.9 8 12.5C6.5 17 7 16 8 18C8.8 19.6 8.33333 21.3333 8 22M5 4C6.5 3.66667 10 3.4 12 5C14.5 7 14 10 21 6.00001M23 12C23 18.0751 18.0751 23 12 23C5.92487 23 1 18.0751 1 12C1 5.92487 5.92487 1 12 1C18.0751 1 23 5.92487 23 12ZM14.3272 12.299C17.8272 11.799 19 11.5 18 14C17.0715 16.3212 14.3272 20.9657 12.3272 16.299C11.8272 15.1324 11.5272 12.699 14.3272 12.299Z" stroke="#111111" stroke-width="2" stroke-linecap="round"/>
</svg>
