<svg width="24" height="24" viewBox="0 0 24 24" fill="none" xmlns="http://www.w3.org/2000/svg">
<path d="M9.00033 3.7583C9.00033 2.78722 9.78755 2 10.7586 2H13.242C14.2131 2 15.0003 2.78722 15.0003 3.75831C15.0003 5.11186 16.4656 5.95781 17.6378 5.28104C18.4788 4.79548 19.5542 5.08362 20.0398 5.92462L21.2814 8.07525C21.767 8.91625 21.4788 9.99162 20.6378 10.4772C19.4656 11.154 19.4656 12.8459 20.6378 13.5227C21.4788 14.0082 21.767 15.0836 21.2814 15.9246L20.0398 18.0752C19.5542 18.9162 18.4788 19.2044 17.6378 18.7188C16.4656 18.0421 15.0003 18.8881 15.0003 20.2416C15.0003 21.2127 14.2131 22 13.242 22H10.7587C9.78757 22 9.00033 21.2127 9.00033 20.2416C9.00033 18.8881 7.53506 18.0421 6.36285 18.7188C5.52186 19.2044 4.44648 18.9162 3.96094 18.0753L2.71926 15.9246C2.23371 15.0836 2.52186 14.0082 3.36286 13.5227C4.53508 12.8459 4.53508 11.154 3.36286 10.4772C2.52186 9.99162 2.23371 8.91624 2.71926 8.07525L3.96094 5.9246C4.44649 5.08361 5.52187 4.79547 6.36286 5.28102C7.53506 5.95779 9.00033 5.11184 9.00033 3.7583Z" stroke="#111111" stroke-width="2"/>
<path d="M16.0003 12C16.0003 14.2091 14.2095 16 12.0003 16C9.79119 16 8.00033 14.2091 8.00033 12C8.00033 9.79086 9.79119 8 12.0003 8C14.2095 8 16.0003 9.79086 16.0003 12Z" stroke="#111111" stroke-width="2"/>
</svg>
