<svg width="24" height="24" viewBox="0 0 24 24" fill="none" xmlns="http://www.w3.org/2000/svg">
<path d="M8 6H16M8 10H16M8 14H16M6 2H18C19.1046 2 20 2.89543 20 4V18.7639C20 20.2507 18.4354 21.2177 17.1056 20.5528L16.8944 20.4472C16.3314 20.1657 15.6686 20.1657 15.1056 20.4472L12.8944 21.5528C12.3314 21.8343 11.6686 21.8343 11.1056 21.5528L8.89443 20.4472C8.33137 20.1657 7.66863 20.1657 7.10557 20.4472L6.89443 20.5528C5.56462 21.2177 4 20.2507 4 18.7639V4C4 2.89543 4.89543 2 6 2Z" stroke="#111111" stroke-width="2" stroke-linecap="round"/>
</svg>
