<svg width="24" height="24" viewBox="0 0 24 24" fill="none" xmlns="http://www.w3.org/2000/svg">
<g clip-path="url(#clip0_803_17726)">
<path d="M22.2929 23.7071C22.6834 24.0976 23.3166 24.0976 23.7071 23.7071C24.0976 23.3166 24.0976 22.6834 23.7071 22.2929L22.2929 23.7071ZM18.1176 10.0588C18.1176 14.5096 14.5096 18.1176 10.0588 18.1176V20.1176C15.6142 20.1176 20.1176 15.6142 20.1176 10.0588H18.1176ZM10.0588 18.1176C5.60806 18.1176 2 14.5096 2 10.0588H0C0 15.6142 4.50349 20.1176 10.0588 20.1176V18.1176ZM2 10.0588C2 5.60806 5.60806 2 10.0588 2V0C4.50349 0 0 4.50349 0 10.0588H2ZM10.0588 2C14.5096 2 18.1176 5.60806 18.1176 10.0588H20.1176C20.1176 4.50349 15.6142 0 10.0588 0V2ZM15.8223 17.2365L22.2929 23.7071L23.7071 22.2929L17.2365 15.8223L15.8223 17.2365Z" fill="#111111"/>
</g>
<defs>
<clipPath id="clip0_803_17726">
<rect width="24" height="24" fill="white"/>
</clipPath>
</defs>
</svg>
