<svg width="28" height="30" viewBox="0 0 28 30" fill="none" xmlns="http://www.w3.org/2000/svg">
<g filter="url(#filter0_d_803_18194)">
<path d="M7.18404 20.564L7.63803 19.673H7.63803L7.18404 20.564ZM5.43597 18.816L4.54497 19.27L5.43597 18.816ZM22.564 18.816L21.673 18.362V18.362L22.564 18.816ZM20.816 20.564L21.27 21.455L20.816 20.564ZM9 21C9 21.5523 9.44772 22 10 22C10.5523 22 11 21.5523 11 21H9ZM17 21C17 21.5523 17.4477 22 18 22C18.5523 22 19 21.5523 19 21H17ZM11 8L10.0194 7.80388L10 7.90098V8H11ZM5.02439 8.38434L4.03247 8.51119L5.02439 8.38434ZM17 8H18V7.90098L17.9806 7.80388L17 8ZM22.9633 8.47033L21.9755 8.31479V8.31479L22.9633 8.47033ZM5.14305 7.64238L6.07152 8.01377H6.07152L5.14305 7.64238ZM6.49711 4.25722L7.42559 4.62861V4.62861L6.49711 4.25722ZM21.0528 4.10557L20.1584 4.55279V4.55279L21.0528 4.10557ZM22.7889 7.57771L23.6833 7.1305L23.6833 7.13049L22.7889 7.57771ZM22 8.0001V14.6H24V8.0001H22ZM16.6 20H11.4V22H16.6V20ZM6 14.6V8.0001H4V14.6H6ZM11.4 20C10.2634 20 9.47108 19.9992 8.85424 19.9488C8.24907 19.8994 7.90138 19.8072 7.63803 19.673L6.73005 21.455C7.32234 21.7568 7.96253 21.8826 8.69138 21.9422C9.40855 22.0008 10.2964 22 11.4 22V20ZM4 14.6C4 15.7036 3.99922 16.5914 4.05782 17.3086C4.11737 18.0375 4.24318 18.6777 4.54497 19.27L6.32698 18.362C6.19279 18.0986 6.10062 17.7509 6.05118 17.1458C6.00078 16.5289 6 15.7366 6 14.6H4ZM7.63803 19.673C7.07354 19.3854 6.6146 18.9265 6.32698 18.362L4.54497 19.27C5.02433 20.2108 5.78924 20.9757 6.73005 21.455L7.63803 19.673ZM22 14.6C22 15.7366 21.9992 16.5289 21.9488 17.1458C21.8994 17.7509 21.8072 18.0986 21.673 18.362L23.455 19.27C23.7568 18.6777 23.8826 18.0375 23.9422 17.3086C24.0008 16.5915 24 15.7036 24 14.6H22ZM16.6 22C17.7036 22 18.5914 22.0008 19.3086 21.9422C20.0375 21.8826 20.6777 21.7568 21.27 21.455L20.362 19.673C20.0986 19.8072 19.7509 19.8994 19.1458 19.9488C18.5289 19.9992 17.7366 20 16.6 20V22ZM21.673 18.362C21.3854 18.9265 20.9265 19.3854 20.362 19.673L21.27 21.455C22.2108 20.9757 22.9757 20.2108 23.455 19.27L21.673 18.362ZM11 21V17H9V21H11ZM12 16H16V14H12V16ZM17 17V21H19V17H17ZM16 16C16.5523 16 17 16.4477 17 17H19C19 15.3431 17.6569 14 16 14V16ZM11 17C11 16.4477 11.4477 16 12 16V14C10.3431 14 9 15.3431 9 17H11ZM10 8C10 9.10457 9.10457 10 8 10V12C10.2091 12 12 10.2091 12 8H10ZM8 10C6.98302 10 6.14196 9.24004 6.01631 8.25749L4.03247 8.51119C4.28416 10.4793 5.96371 12 8 12V10ZM16 8C16 9.10457 15.1046 10 14 10V12C16.2091 12 18 10.2091 18 8H16ZM14 10C12.8954 10 12 9.10457 12 8H10C10 10.2091 11.7909 12 14 12V10ZM21.9755 8.31479C21.8252 9.26957 20.997 10 20 10V12C21.9967 12 23.6501 10.5379 23.9512 8.62587L21.9755 8.31479ZM20 10C18.8954 10 18 9.10457 18 8H16C16 10.2091 17.7909 12 20 12V10ZM6.07152 8.01377L7.42559 4.62861L5.56864 3.88583L4.21457 7.27099L6.07152 8.01377ZM20.1584 4.55279L21.8944 8.02492L23.6833 7.13049L21.9472 3.65836L20.1584 4.55279ZM8.35407 4H12V2H8.35407V4ZM11.9806 8.19612L12.9806 3.19612L11.0194 2.80388L10.0194 7.80388L11.9806 8.19612ZM12 4H16V2H12V4ZM16 4H19.2639V2H16V4ZM17.9806 7.80388L16.9806 2.80388L15.0194 3.19612L16.0194 8.19612L17.9806 7.80388ZM21.9472 3.65836C21.439 2.64201 20.4002 2 19.2639 2V4C19.6427 4 19.989 4.214 20.1584 4.55279L21.9472 3.65836ZM23.9512 8.62587C24.0434 8.04025 23.8755 7.51499 23.6833 7.1305L21.8944 8.02492C21.9799 8.19585 21.9799 8.28699 21.9755 8.31479L23.9512 8.62587ZM7.42559 4.62861C7.57745 4.24895 7.94516 4 8.35407 4V2C7.12735 2 6.02423 2.74685 5.56864 3.88583L7.42559 4.62861ZM6.01631 8.25749C6.01315 8.2328 6.01371 8.1583 6.07152 8.01377L4.21457 7.27099C4.08339 7.59895 3.97107 8.03112 4.03247 8.51119L6.01631 8.25749Z" fill="#111111"/>
</g>
<defs>
<filter id="filter0_d_803_18194" x="-2" y="0" width="32" height="32" filterUnits="userSpaceOnUse" color-interpolation-filters="sRGB">
<feFlood flood-opacity="0" result="BackgroundImageFix"/>
<feColorMatrix in="SourceAlpha" type="matrix" values="0 0 0 0 0 0 0 0 0 0 0 0 0 0 0 0 0 0 127 0" result="hardAlpha"/>
<feOffset dy="4"/>
<feGaussianBlur stdDeviation="2"/>
<feComposite in2="hardAlpha" operator="out"/>
<feColorMatrix type="matrix" values="0 0 0 0 0 0 0 0 0 0 0 0 0 0 0 0 0 0 0.25 0"/>
<feBlend mode="normal" in2="BackgroundImageFix" result="effect1_dropShadow_803_18194"/>
<feBlend mode="normal" in="SourceGraphic" in2="effect1_dropShadow_803_18194" result="shape"/>
</filter>
</defs>
</svg>
