<svg width="24" height="24" viewBox="0 0 24 24" fill="none" xmlns="http://www.w3.org/2000/svg">
<path d="M3.09202 17.782L3.54601 16.891H3.54601L3.09202 17.782ZM2.21799 16.908L1.32698 17.362L2.21799 16.908ZM21.9995 15.4003L22.9995 15.4042L21.9995 15.4003ZM21.782 16.908L22.673 17.362L22.673 17.362L21.782 16.908ZM20.908 17.782L21.362 18.673L20.908 17.782ZM20.908 6.21799L21.362 5.32698V5.32698L20.908 6.21799ZM21.782 7.09202L22.673 6.63803V6.63803L21.782 7.09202ZM3.09202 6.21799L3.54601 7.10899L3.54601 7.10899L3.09202 6.21799ZM2.21799 7.09202L3.10899 7.54601L3.10899 7.54601L2.21799 7.09202ZM21.601 14.9737L21.4692 15.965L21.4692 15.965L21.601 14.9737ZM21.6008 9.02633L21.7326 10.0176L21.6008 9.02633ZM21.9988 8.5995L20.9989 8.60683V8.60683L21.9988 8.5995ZM21.884 8.96531L22.4202 9.80939L22.4202 9.80939L21.884 8.96531ZM21.9776 8.85771L21.0671 8.44402L21.0671 8.44407L21.9776 8.85771ZM21.9775 15.1418L22.8869 14.726L22.8869 14.7259L21.9775 15.1418ZM21.884 15.0346L21.3486 15.8792L21.3486 15.8792L21.884 15.0346ZM17 6C17 5.44772 16.5523 5 16 5C15.4477 5 15 5.44772 15 6H17ZM15 18C15 18.5523 15.4477 19 16 19C16.5523 19 17 18.5523 17 18H15ZM6 9C5.44772 9 5 9.44772 5 10C5 10.5523 5.44772 11 6 11V9ZM12 11C12.5523 11 13 10.5523 13 10C13 9.44772 12.5523 9 12 9V11ZM6 13C5.44772 13 5 13.4477 5 14C5 14.5523 5.44772 15 6 15V13ZM12 15C12.5523 15 13 14.5523 13 14C13 13.4477 12.5523 13 12 13V15ZM5.2 7H18.8V5H5.2V7ZM18.8 17H5.2V19H18.8V17ZM5.2 17C4.62345 17 4.25117 16.9992 3.96784 16.9761C3.69617 16.9539 3.59545 16.9162 3.54601 16.891L2.63803 18.673C3.01641 18.8658 3.40963 18.9371 3.80497 18.9694C4.18864 19.0008 4.65645 19 5.2 19V17ZM1 15C1 16.0311 0.975901 16.6729 1.32698 17.362L3.10899 16.454C3.0241 16.2874 3 16.2091 3 15H1ZM3.54601 16.891C3.35785 16.7951 3.20487 16.6422 3.10899 16.454L1.32698 17.362C1.6146 17.9265 2.07354 18.3854 2.63803 18.673L3.54601 16.891ZM20.9995 15.3963C20.9962 16.2317 20.9585 16.3216 20.891 16.454L22.673 17.362C22.9848 16.75 22.9964 16.1981 22.9995 15.4042L20.9995 15.3963ZM18.8 19C19.3436 19 19.8114 19.0008 20.195 18.9694C20.5904 18.9371 20.9836 18.8658 21.362 18.673L20.454 16.891C20.4045 16.9162 20.3038 16.9539 20.0322 16.9761C19.7488 16.9992 19.3766 17 18.8 17V19ZM20.891 16.454C20.7951 16.6422 20.6422 16.7951 20.454 16.891L21.362 18.673C21.9265 18.3854 22.3854 17.9265 22.673 17.362L20.891 16.454ZM18.8 7C19.3766 7 19.7488 7.00078 20.0322 7.02393C20.3038 7.04612 20.4045 7.0838 20.454 7.10899L21.362 5.32698C20.9836 5.13419 20.5904 5.06287 20.195 5.03057C19.8114 4.99922 19.3436 5 18.8 5V7ZM20.454 7.10899C20.6422 7.20487 20.7951 7.35785 20.891 7.54601L22.673 6.63803C22.3854 6.07354 21.9265 5.6146 21.362 5.32698L20.454 7.10899ZM5.2 5C4.65645 5 4.18864 4.99922 3.80497 5.03057C3.40963 5.06287 3.01641 5.13419 2.63803 5.32698L3.54601 7.10899C3.59545 7.0838 3.69617 7.04612 3.96784 7.02393C4.25117 7.00078 4.62345 7 5.2 7V5ZM3 9C3 7.79091 3.0241 7.71262 3.10899 7.54601L1.32698 6.63803C0.975901 7.32706 1 7.96888 1 9H3ZM2.63803 5.32698C2.07354 5.6146 1.6146 6.07354 1.32698 6.63803L3.10899 7.54601C3.20487 7.35785 3.35785 7.20487 3.54601 7.10899L2.63803 5.32698ZM21.7327 13.9824C20.7549 13.8524 20 13.0136 20 12H18C18 14.0295 19.5106 15.7047 21.4692 15.965L21.7327 13.9824ZM20 12C20 10.9865 20.7548 10.1476 21.7326 10.0176L21.469 8.03505C19.5105 8.29545 18 9.97051 18 12H20ZM22.9988 8.59218C22.9935 7.8626 22.9754 7.23148 22.673 6.63803L20.891 7.54601C20.9479 7.65773 20.9931 7.81893 20.9989 8.60683L22.9988 8.59218ZM3 15V9H1V15H3ZM21.7326 10.0176C21.7983 10.0089 21.8945 9.99656 21.9779 9.98009C22.0543 9.96499 22.2356 9.92671 22.4202 9.80939L21.3478 8.12124C21.4218 8.07425 21.4867 8.04881 21.5262 8.03565C21.5641 8.02301 21.5895 8.01815 21.5904 8.01797C21.5921 8.01764 21.5852 8.01903 21.5616 8.02244C21.5383 8.02582 21.5102 8.02957 21.469 8.03505L21.7326 10.0176ZM20.9989 8.60683C20.9991 8.64348 20.9993 8.66648 20.9992 8.68513C20.999 8.70391 20.9987 8.7056 20.9991 8.69858C20.9996 8.69125 21.005 8.58068 21.0671 8.44402L22.888 9.27139C22.9729 9.08458 22.9895 8.91426 22.9951 8.82504C23.0005 8.74054 22.9992 8.647 22.9988 8.59217L20.9989 8.60683ZM22.4202 9.80939C22.6287 9.67696 22.7859 9.49619 22.888 9.27135L21.0671 8.44407C21.0881 8.3979 21.1248 8.33169 21.1846 8.26282C21.2445 8.19394 21.305 8.14843 21.3478 8.12124L22.4202 9.80939ZM22.9995 15.4042C22.9997 15.3491 23.0007 15.2557 22.9951 15.1714C22.9892 15.0828 22.9722 14.9125 22.8869 14.726L21.068 15.5576C21.0363 15.4881 21.0195 15.4265 21.0105 15.382C21.002 15.34 20.9999 15.3106 20.9995 15.3038C20.999 15.297 20.9994 15.2988 20.9996 15.3177C20.9997 15.3365 20.9997 15.3596 20.9995 15.3963L22.9995 15.4042ZM21.4692 15.965C21.5104 15.9704 21.5385 15.9742 21.5618 15.9776C21.5854 15.981 21.5924 15.9824 21.5908 15.9821C21.5899 15.9819 21.5646 15.9771 21.5269 15.9645C21.4875 15.9514 21.4226 15.9261 21.3486 15.8792L22.4193 14.1899C22.2348 14.073 22.0538 14.0348 21.9776 14.0198C21.8944 14.0034 21.7984 13.9911 21.7327 13.9824L21.4692 15.965ZM22.8869 14.7259C22.7844 14.5018 22.6275 14.3219 22.4193 14.1899L21.3486 15.8792C21.3064 15.8524 21.2459 15.8071 21.1857 15.7382C21.1255 15.6692 21.0888 15.603 21.068 15.5576L22.8869 14.7259ZM15 6V18H17V6H15ZM6 11H12V9H6V11ZM6 15H12V13H6V15Z" fill="#111111"/>
</svg>
