<svg width="24" height="24" viewBox="0 0 24 24" fill="none" xmlns="http://www.w3.org/2000/svg">
<path d="M20 10V7.2C20 6.0799 20 5.51984 19.782 5.09202C19.5903 4.71569 19.2843 4.40973 18.908 4.21799C18.4802 4 17.9201 4 16.8 4H5.2C4.0799 4 3.51984 4 3.09202 4.21799C2.71569 4.40973 2.40973 4.71569 2.21799 5.09202C2 5.51984 2 6.0799 2 7.2V16.8C2 17.9201 2 18.4802 2.21799 18.908C2.40973 19.2843 2.71569 19.5903 3.09202 19.782C3.51984 20 4.0799 20 5.2 20H16.8C17.9201 20 18.4802 20 18.908 19.782C19.2843 19.5903 19.5903 19.2843 19.782 18.908C20 18.4802 20 17.9201 20 16.8V14.5M15.6 14H20.4C20.9601 14 21.2401 14 21.454 13.891C21.6422 13.7951 21.7951 13.6422 21.891 13.454C22 13.2401 22 12.9601 22 12.4V11.6C22 11.0399 22 10.7599 21.891 10.546C21.7951 10.3578 21.6422 10.2049 21.454 10.109C21.2401 10 20.9601 10 20.4 10H15.6C15.0399 10 14.7599 10 14.546 10.109C14.3578 10.2049 14.2049 10.3578 14.109 10.546C14 10.7599 14 11.0399 14 11.6V12.4C14 12.9601 14 13.2401 14.109 13.454C14.2049 13.6422 14.3578 13.7951 14.546 13.891C14.7599 14 15.0399 14 15.6 14Z" stroke="#111111" stroke-width="2"/>
</svg>
